<svg 
 xmlns="http://www.w3.org/2000/svg"
 xmlns:xlink="http://www.w3.org/1999/xlink"
 width="24px" height="14px">
<path fill-rule="evenodd"  fill="rgb(174, 213, 129)"
 d="M23.852,7.311 C23.636,7.584 18.493,14.000 11.992,14.000 C5.492,14.000 0.349,7.584 0.133,7.311 C-0.010,7.128 -0.010,6.871 0.133,6.689 C0.349,6.417 5.492,-0.001 11.992,-0.001 C18.493,-0.001 23.636,6.417 23.852,6.689 C23.995,6.871 23.995,7.128 23.852,7.311 ZM11.992,1.001 C6.760,1.001 2.285,5.729 1.177,7.000 C2.285,8.271 6.760,13.000 11.992,13.000 C17.225,13.000 21.700,8.271 22.808,7.000 C21.700,5.729 17.225,1.001 11.992,1.001 ZM11.992,11.500 C9.518,11.500 7.505,9.482 7.505,7.000 C7.505,4.519 9.518,2.500 11.992,2.500 C14.467,2.500 16.480,4.519 16.480,7.000 C16.480,9.482 14.467,11.500 11.992,11.500 ZM11.992,3.500 C10.068,3.500 8.502,5.070 8.502,7.000 C8.502,8.930 10.068,10.500 11.992,10.500 C13.917,10.500 15.483,8.930 15.483,7.000 C15.483,5.070 13.917,3.500 11.992,3.500 Z"/>
</svg>