<svg xmlns="http://www.w3.org/2000/svg" width="23.938" height="14" viewBox="0 0 23.938 14">
  <metadata><?xpacket begin="﻿" id="W5M0MpCehiHzreSzNTczkc9d"?>
<x:xmpmeta xmlns:x="adobe:ns:meta/" x:xmptk="Adobe XMP Core 5.6-c142 79.160924, 2017/07/13-01:06:39        ">
   <rdf:RDF xmlns:rdf="http://www.w3.org/1999/02/22-rdf-syntax-ns#">
      <rdf:Description rdf:about=""/>
   </rdf:RDF>
</x:xmpmeta>
                                                                                                    
                                                                                                    
                                                                                                    
                                                                                                    
                                                                                                    
                                                                                                    
                                                                                                    
                                                                                                    
                                                                                                    
                                                                                                    
                                                                                                    
                                                                                                    
                                                                                                    
                                                                                                    
                                                                                                    
                                                                                                    
                                                                                                    
                                                                                                    
                                                                                                    
                                                                                                    
                           
<?xpacket end="w"?></metadata>
<defs>
    <style>
      .cls-1 {
        fill: #fff;
        fill-rule: evenodd;
      }
    </style>
  </defs>
  <path id="Forme_8_copie_11" data-name="Forme 8 copie 11" class="cls-1" d="M312.993,1190c-6.5,0-11.644-6.42-11.86-6.69a0.5,0.5,0,0,1,0-.62c0.216-.27,5.359-6.69,11.86-6.69s11.643,6.42,11.859,6.69a0.5,0.5,0,0,1,0,.62C324.636,1183.58,319.493,1190,312.993,1190Zm-10.816-7c1.108,1.27,5.583,6,10.816,6s9.707-4.73,10.815-6c-1.108-1.27-5.583-6-10.815-6S303.285,1181.73,302.177,1183Zm10.816,4.5a4.5,4.5,0,1,1,4.487-4.5A4.5,4.5,0,0,1,312.993,1187.5Zm0-8a3.5,3.5,0,1,0,3.49,3.5A3.5,3.5,0,0,0,312.993,1179.5Z" transform="translate(-301.031 -1176)"/>
</svg>
